# xmcd
#
# Track frame offsets: 
#        150
#        16058
#        35824
#        51716
#        73219
#        91971
#        107228
#        121783
#        148564
#        160487
#
# Disc length: 2312 seconds
#
# Revision: 0
# Processed by: cddbd v1.5.2PL0 Copyright (c) Steve Scherf et al.
# Submitted via: ExactAudioCopy v0.95b4
#
DISCID=9009060a
DTITLE=Maurizio Zammartino - Alma Mediterranea
DYEAR=2004
DGENRE=Blues
TTITLE0=Dune
TTITLE1=Fiesta
TTITLE2=Arabesque
TTITLE3=Tangeri
TTITLE4=Mediterranean dance
TTITLE5=Soles
TTITLE6=Rapsodia flegrea
TTITLE7=Medina
TTITLE8=Suoni del mare
TTITLE9=Tarantella
EXTD=
EXTT0=
EXTT1=
EXTT2=
EXTT3=
EXTT4=
EXTT5=
EXTT6=
EXTT7=
EXTT8=
EXTT9=
PLAYORDER=
